<svg id="Component_2_1" data-name="Component 2 – 1" xmlns="http://www.w3.org/2000/svg" width="970.651" height="212" viewBox="0 0 970.651 212">
  <g id="Component_1_1" data-name="Component 1 – 1" transform="translate(472.651)">
    <g id="Rectangle_1" data-name="Rectangle 1" transform="translate(0 12)" fill="none" stroke="#3b6da9" stroke-width="15">
      <rect width="125" height="112" rx="25" stroke="none"/>
      <rect x="7.5" y="7.5" width="110" height="97" rx="17.5" fill="none"/>
    </g>
    <g id="Ellipse_1" data-name="Ellipse 1" transform="translate(85 83)" fill="#fff" stroke="#eecc47" stroke-width="13">
      <circle cx="28" cy="28" r="28" stroke="none"/>
      <circle cx="28" cy="28" r="21.5" fill="none"/>
    </g>
    <g id="Rectangle_2" data-name="Rectangle 2" transform="translate(150 100)" fill="none" stroke="#3b6da9" stroke-width="15">
      <rect width="125" height="112" rx="25" stroke="none"/>
      <rect x="7.5" y="7.5" width="110" height="97" rx="17.5" fill="none"/>
    </g>
    <g id="Ellipse_2" data-name="Ellipse 2" transform="translate(142 92)" fill="#fff" stroke="#3b6da9" stroke-width="13">
      <circle cx="28" cy="28" r="28" stroke="none"/>
      <circle cx="28" cy="28" r="21.5" fill="none"/>
    </g>
    <text id="Wonder" transform="translate(146 84)" fill="#1e4d7d" font-size="81" font-family="DIN-Black, DIN" font-weight="800"><tspan x="0" y="0">Wonder</tspan></text>
    <text id="Event" transform="translate(287 151)" fill="#1e4d7d" font-size="80" font-family="DIN-Black, DIN" font-weight="800"><tspan x="0" y="0">Event</tspan></text>
  </g>
  <path id="Path_1" data-name="Path 1" d="M43.71-32.085a48.089,48.089,0,0,1-1.023,9.114q-2.7,13.485-7.9,18.693A16.633,16.633,0,0,1,22.506.558q-8.184,0-11.346-6.324l-5.3,26.133H-.651L12.555-45.849h6.417l-1.116,5.394A15.779,15.779,0,0,1,30.6-46.407q6.975,0,10.044,3.952T43.71-32.085Zm-6.6.837q0-9.393-8.184-9.393-6.417,0-9.626,4.7t-4.79,12.974a44.247,44.247,0,0,0-1.023,8.277q0,9.486,8.277,9.486,6.417,0,9.579-4.743t4.743-13.02A44.246,44.246,0,0,0,37.107-31.248Zm53.2-.093a49.056,49.056,0,0,1-.93,8.463Q86.862-10.044,80.724-4.371A18.834,18.834,0,0,1,67.7.558a15.5,15.5,0,0,1-10.463-3.72q-4.324-3.72-4.324-11.346a48.756,48.756,0,0,1,.93-8.37Q56.265-35.9,62.5-41.385a18.853,18.853,0,0,1,13.02-5.022,15.5,15.5,0,0,1,10.462,3.72Q90.3-38.967,90.3-31.341Zm-6.417.465q0-5.022-2.511-7.44a8.871,8.871,0,0,0-6.417-2.418A11.546,11.546,0,0,0,66.5-37.2q-4.278,4.278-6.231,14.322a41.375,41.375,0,0,0-.93,7.9q0,5.022,2.511,7.44a8.751,8.751,0,0,0,6.324,2.418,11.654,11.654,0,0,0,8.556-3.534Q81-12.834,82.956-22.878A42.79,42.79,0,0,0,83.886-30.876ZM161.82-45.849,139.593,0h-5.952l-4.464-35.526L110.856,0H104.9l-4.743-45.849h6.6l2.883,36.642,18.6-36.642h5.3l4.371,36.642,17.019-36.642ZM201.531-30.69a55.482,55.482,0,0,1-1.116,9.393H170.841a41.684,41.684,0,0,0-.558,5.766,11.333,11.333,0,0,0,2.465,7.626q2.464,2.883,7.393,2.883,6.975,0,12.927-5.394l3.906,4.278a24.629,24.629,0,0,1-17.3,6.7q-6.975,0-11.3-4.046t-4.325-11.765a44.682,44.682,0,0,1,1.3-10.695,41.515,41.515,0,0,1,3.859-10,20.483,20.483,0,0,1,7.068-7.579,18.834,18.834,0,0,1,10.369-2.883q7.068,0,10.974,4.417A16.426,16.426,0,0,1,201.531-30.69Zm-6.324,0q0-5.115-2.511-7.673a8.493,8.493,0,0,0-6.324-2.557q-10.788,0-14.6,14.88h23.064A25.2,25.2,0,0,0,195.207-30.69ZM247.1-42.129l-5.3,4.743a7.852,7.852,0,0,0-6.51-3.255,11.983,11.983,0,0,0-8.556,3.58,16.341,16.341,0,0,0-4.743,8.974L216.411,0H209.9l9.114-45.849h6.417l-1.116,5.58q4.464-6.138,12.834-6.138A12.525,12.525,0,0,1,247.1-42.129ZM283.836-30.69A55.484,55.484,0,0,1,282.72-21.3H253.146a41.684,41.684,0,0,0-.558,5.766,11.333,11.333,0,0,0,2.465,7.626q2.464,2.883,7.394,2.883,6.975,0,12.927-5.394l3.906,4.278a24.629,24.629,0,0,1-17.3,6.7q-6.975,0-11.3-4.046t-4.325-11.765a44.682,44.682,0,0,1,1.3-10.695,41.515,41.515,0,0,1,3.859-10,20.483,20.483,0,0,1,7.068-7.579,18.834,18.834,0,0,1,10.37-2.883q7.068,0,10.974,4.417A16.426,16.426,0,0,1,283.836-30.69Zm-6.324,0q0-5.115-2.511-7.673a8.493,8.493,0,0,0-6.324-2.557q-10.788,0-14.6,14.88H277.14A25.2,25.2,0,0,0,277.512-30.69Zm60.171-35.526L324.477,0H318.06l1.116-5.487A15.853,15.853,0,0,1,306.435.558q-13.113,0-13.113-14.415a45.067,45.067,0,0,1,1.023-9.114q2.6-13.3,7.9-18.6a16.633,16.633,0,0,1,12.276-4.836q8.184,0,11.346,6.324l5.3-26.133ZM323.547-31.248q0-9.393-8.277-9.393-6.417,0-9.579,4.7t-4.743,12.974a44.246,44.246,0,0,0-1.023,8.277q0,9.486,8.184,9.486,6.417,0,9.626-4.743t4.789-13.02A44.251,44.251,0,0,0,323.547-31.248ZM402.69-31.9a47.408,47.408,0,0,1-1.023,8.928q-2.6,13.485-7.9,18.786A16.493,16.493,0,0,1,381.579.558q-8.463,0-11.532-6.417L368.838,0h-6.417l13.206-66.216h6.51l-5.115,25.575q4.557-5.766,12.555-5.766,6.324,0,9.718,3.72T402.69-31.9Zm-6.6.837q0-9.579-8.184-9.579-6.417,0-9.625,4.7t-4.79,12.974a44.011,44.011,0,0,0-1.023,8.184q0,9.579,8.277,9.579,6.417,0,9.579-4.743t4.743-13.02A43.793,43.793,0,0,0,396.087-31.062Zm53.2-14.787-30.5,56.823a20.577,20.577,0,0,1-3.906,5.487q-3.348,3.069-9.486,3.069H402.5l1.209-5.766h1.953a7.744,7.744,0,0,0,4.789-1.255,14.947,14.947,0,0,0,3.488-4.79L418.5-1.023l-6.6-44.826h6.51L423.15-8.928l18.972-36.921Z" transform="translate(0.651 103)" fill="#1e4d7d"/>
</svg>
