<svg id="Component_2_1" data-name="Component 2 – 1" xmlns="http://www.w3.org/2000/svg" width="966.851" height="200" viewBox="0 0 966.851 200">
  <g id="Component_1_1" data-name="Component 1 – 1" transform="translate(472.651)">
    <g id="Rectangle_1" data-name="Rectangle 1" fill="none" stroke="#3b6da9" stroke-width="15">
      <rect width="125" height="112" rx="25" stroke="none"/>
      <rect x="7.5" y="7.5" width="110" height="97" rx="17.5" fill="none"/>
    </g>
    <g id="Ellipse_1" data-name="Ellipse 1" transform="translate(85 71)" fill="#fff" stroke="#eecc47" stroke-width="13">
      <circle cx="28" cy="28" r="28" stroke="none"/>
      <circle cx="28" cy="28" r="21.5" fill="none"/>
    </g>
    <g id="Rectangle_2" data-name="Rectangle 2" transform="translate(150 88)" fill="none" stroke="#3b6da9" stroke-width="15">
      <rect width="125" height="112" rx="25" stroke="none"/>
      <rect x="7.5" y="7.5" width="110" height="97" rx="17.5" fill="none"/>
    </g>
    <g id="Ellipse_2" data-name="Ellipse 2" transform="translate(142 80)" fill="#fff" stroke="#3b6da9" stroke-width="13">
      <circle cx="28" cy="28" r="28" stroke="none"/>
      <circle cx="28" cy="28" r="21.5" fill="none"/>
    </g>
    <path id="Path_2" data-name="Path 2" d="M57.591.081H46.008L36.693-28.35,27.378.081h-11.5L0-57.672H14.823l7.533,30.294,9.315-30.294H41.715L51.03-27.378l7.533-30.294H73.386ZM109.674-5.1a17.907,17.907,0,0,1-5.711,4.01,19.806,19.806,0,0,1-8.3,1.58,19.909,19.909,0,0,1-8.3-1.539,18.308,18.308,0,0,1-5.873-4.253,15.6,15.6,0,0,1-3.564-6.359,38.136,38.136,0,0,1-1.053-10.125,40.077,40.077,0,0,1,.972-10.085,14.991,14.991,0,0,1,3.523-6.277,18.744,18.744,0,0,1,5.994-4.333,19.806,19.806,0,0,1,8.3-1.58,19.909,19.909,0,0,1,8.3,1.539,18.307,18.307,0,0,1,5.872,4.252,15.556,15.556,0,0,1,3.564,6.44,38.3,38.3,0,0,1,1.053,10.044,40.077,40.077,0,0,1-.972,10.085A16.021,16.021,0,0,1,109.674-5.1ZM99.225-30.861a4.831,4.831,0,0,0-3.564-1.215A4.831,4.831,0,0,0,92.1-30.861a5.964,5.964,0,0,0-1.579,3.28,35.318,35.318,0,0,0-.365,5.792,35.446,35.446,0,0,0,.365,5.751A6,6,0,0,0,92.1-12.717,4.831,4.831,0,0,0,95.661-11.5a4.831,4.831,0,0,0,3.564-1.215A5.964,5.964,0,0,0,100.8-16a35.319,35.319,0,0,0,.365-5.792,35.447,35.447,0,0,0-.365-5.751A6,6,0,0,0,99.225-30.861ZM146.934.081V-26.067q0-3.33-1.7-4.67a5.785,5.785,0,0,0-3.645-1.34,5.785,5.785,0,0,0-3.645,1.34q-1.7,1.34-1.7,4.67V.081H122.958V-43.578h12.96v3.564a13.446,13.446,0,0,1,4.617-2.957,14.829,14.829,0,0,1,5.508-1.093,15.272,15.272,0,0,1,5.508.933,13.468,13.468,0,0,1,4.658,3.165,12.245,12.245,0,0,1,3.118,5.193,24.187,24.187,0,0,1,.891,6.939V.081Zm46.089,0V-3.564a14.065,14.065,0,0,1-4.374,3.038,14.288,14.288,0,0,1-5.67,1.012q-6.642,0-9.841-3.222a14.118,14.118,0,0,1-4.01-7.129,46.915,46.915,0,0,1-.81-9.385v-2.417a81.466,81.466,0,0,1,.607-11.237,13.218,13.218,0,0,1,4.01-7.532q3.4-3.384,9.963-3.384,6.075,0,9.72,3.4V-57.672H205.9V.081ZM187.11-32.076q-3.483,0-4.5,2.43T181.6-21.789q0,5.427,1.012,7.857t4.5,2.43q3.483,0,4.5-2.43t1.013-7.857q0-5.427-1.013-7.857T187.11-32.076ZM227.043-17.5a6.434,6.434,0,0,0,2.066,4.819,7.786,7.786,0,0,0,5.629,1.985,12.982,12.982,0,0,0,5.184-.81,13.561,13.561,0,0,0,3.807-2.835L251.667-6.4a24.439,24.439,0,0,1-7.33,5.225,23.921,23.921,0,0,1-9.6,1.66q-8.991,0-14.863-4.739T214-21.789q0-10.449,5.387-16.362t14.134-5.913q9.153,0,14.378,5.873t5.225,14.783V-17.5Zm12.231-12.231a5.782,5.782,0,0,0-2.066-2.511,6.584,6.584,0,0,0-3.686-.891,6.6,6.6,0,0,0-3.686.931,5.721,5.721,0,0,0-2.106,2.43,8.163,8.163,0,0,0-.688,3.442H240a10.064,10.064,0,0,0-.122-1.823A6.735,6.735,0,0,0,239.274-29.727Zm45.36-.081a9.645,9.645,0,0,0-2.187-1.7,5.411,5.411,0,0,0-2.592-.567,4.756,4.756,0,0,0-3.969,1.746,6.671,6.671,0,0,0-1.377,4.263V.081H261.225V-43.578h12.96v3.564a14.051,14.051,0,0,1,4.415-2.875,14.623,14.623,0,0,1,5.872-1.175,15.76,15.76,0,0,1,5.589.891,13.332,13.332,0,0,1,4.617,3.159Z" transform="translate(146 72)" fill="#1e4d7d"/>
    <path id="Path_3" data-name="Path 3" d="M5.76.08V-56.96H44.48v12.48H19.76v9.52H40.88v12.48H19.76V-12.4H44.48V.08Zm68.72,0h-10L48.64-43.04H62.4l7.12,22.32,7.04-22.32H90.32Zm31.76-17.36a6.355,6.355,0,0,0,2.04,4.76,7.69,7.69,0,0,0,5.56,1.96,12.822,12.822,0,0,0,5.12-.8,13.394,13.394,0,0,0,3.76-2.8l7.84,7.84a24.137,24.137,0,0,1-7.24,5.16A23.626,23.626,0,0,1,113.84.48q-8.88,0-14.68-4.68t-5.8-17.32q0-10.32,5.32-16.16t13.96-5.84q9.04,0,14.2,5.8T132-23.12v5.84Zm12.08-12.08a5.711,5.711,0,0,0-2.04-2.48,6.5,6.5,0,0,0-3.64-.88,6.52,6.52,0,0,0-3.64.92,5.65,5.65,0,0,0-2.08,2.4,8.062,8.062,0,0,0-.68,3.4h12.8a9.94,9.94,0,0,0-.12-1.8A6.651,6.651,0,0,0,118.32-29.36ZM163.68.08V-25.745q0-3.289-1.68-4.612a5.713,5.713,0,0,0-3.6-1.323,5.713,5.713,0,0,0-3.6,1.323q-1.68,1.323-1.68,4.612V.08H140V-43.04h12.8v3.52a13.28,13.28,0,0,1,4.56-2.92,14.646,14.646,0,0,1,5.44-1.08,15.084,15.084,0,0,1,5.44.922,13.3,13.3,0,0,1,4.6,3.126,12.094,12.094,0,0,1,3.08,5.129,23.889,23.889,0,0,1,.88,6.853V.08Zm36.96,0q-6.64,0-10-3.81a13.089,13.089,0,0,1-3.36-8.943V-31.28h-3.92V-41.36h3.92V-53.68H200.4v12.32h6.8v10.08h-6.8v17.67a2.338,2.338,0,0,0,2.64,2.65h4.16V.08Z" transform="translate(287 139)" fill="#1e4d7d"/>
  </g>
  <path id="Path_1" data-name="Path 1" d="M43.71-32.085a48.089,48.089,0,0,1-1.023,9.114q-2.7,13.485-7.9,18.693A16.633,16.633,0,0,1,22.506.558q-8.184,0-11.346-6.324l-5.3,26.133H-.651L12.555-45.849h6.417l-1.116,5.394A15.779,15.779,0,0,1,30.6-46.407q6.975,0,10.044,3.952T43.71-32.085Zm-6.6.837q0-9.393-8.184-9.393-6.417,0-9.626,4.7t-4.79,12.974a44.247,44.247,0,0,0-1.023,8.277q0,9.486,8.277,9.486,6.417,0,9.579-4.743t4.743-13.02A44.246,44.246,0,0,0,37.107-31.248Zm53.2-.093a49.056,49.056,0,0,1-.93,8.463Q86.862-10.044,80.724-4.371A18.834,18.834,0,0,1,67.7.558a15.5,15.5,0,0,1-10.463-3.72q-4.324-3.72-4.324-11.346a48.756,48.756,0,0,1,.93-8.37Q56.265-35.9,62.5-41.385a18.853,18.853,0,0,1,13.02-5.022,15.5,15.5,0,0,1,10.462,3.72Q90.3-38.967,90.3-31.341Zm-6.417.465q0-5.022-2.511-7.44a8.871,8.871,0,0,0-6.417-2.418A11.546,11.546,0,0,0,66.5-37.2q-4.278,4.278-6.231,14.322a41.375,41.375,0,0,0-.93,7.9q0,5.022,2.511,7.44a8.751,8.751,0,0,0,6.324,2.418,11.654,11.654,0,0,0,8.556-3.534Q81-12.834,82.956-22.878A42.79,42.79,0,0,0,83.886-30.876ZM161.82-45.849,139.593,0h-5.952l-4.464-35.526L110.856,0H104.9l-4.743-45.849h6.6l2.883,36.642,18.6-36.642h5.3l4.371,36.642,17.019-36.642ZM201.531-30.69a55.482,55.482,0,0,1-1.116,9.393H170.841a41.684,41.684,0,0,0-.558,5.766,11.333,11.333,0,0,0,2.465,7.626q2.464,2.883,7.393,2.883,6.975,0,12.927-5.394l3.906,4.278a24.629,24.629,0,0,1-17.3,6.7q-6.975,0-11.3-4.046t-4.325-11.765a44.682,44.682,0,0,1,1.3-10.695,41.515,41.515,0,0,1,3.859-10,20.483,20.483,0,0,1,7.068-7.579,18.834,18.834,0,0,1,10.369-2.883q7.068,0,10.974,4.417A16.426,16.426,0,0,1,201.531-30.69Zm-6.324,0q0-5.115-2.511-7.673a8.493,8.493,0,0,0-6.324-2.557q-10.788,0-14.6,14.88h23.064A25.2,25.2,0,0,0,195.207-30.69ZM247.1-42.129l-5.3,4.743a7.852,7.852,0,0,0-6.51-3.255,11.983,11.983,0,0,0-8.556,3.58,16.341,16.341,0,0,0-4.743,8.974L216.411,0H209.9l9.114-45.849h6.417l-1.116,5.58q4.464-6.138,12.834-6.138A12.525,12.525,0,0,1,247.1-42.129ZM283.836-30.69A55.484,55.484,0,0,1,282.72-21.3H253.146a41.684,41.684,0,0,0-.558,5.766,11.333,11.333,0,0,0,2.465,7.626q2.464,2.883,7.394,2.883,6.975,0,12.927-5.394l3.906,4.278a24.629,24.629,0,0,1-17.3,6.7q-6.975,0-11.3-4.046t-4.325-11.765a44.682,44.682,0,0,1,1.3-10.695,41.515,41.515,0,0,1,3.859-10,20.483,20.483,0,0,1,7.068-7.579,18.834,18.834,0,0,1,10.37-2.883q7.068,0,10.974,4.417A16.426,16.426,0,0,1,283.836-30.69Zm-6.324,0q0-5.115-2.511-7.673a8.493,8.493,0,0,0-6.324-2.557q-10.788,0-14.6,14.88H277.14A25.2,25.2,0,0,0,277.512-30.69Zm60.171-35.526L324.477,0H318.06l1.116-5.487A15.853,15.853,0,0,1,306.435.558q-13.113,0-13.113-14.415a45.067,45.067,0,0,1,1.023-9.114q2.6-13.3,7.9-18.6a16.633,16.633,0,0,1,12.276-4.836q8.184,0,11.346,6.324l5.3-26.133ZM323.547-31.248q0-9.393-8.277-9.393-6.417,0-9.579,4.7t-4.743,12.974a44.246,44.246,0,0,0-1.023,8.277q0,9.486,8.184,9.486,6.417,0,9.626-4.743t4.789-13.02A44.251,44.251,0,0,0,323.547-31.248ZM402.69-31.9a47.408,47.408,0,0,1-1.023,8.928q-2.6,13.485-7.9,18.786A16.493,16.493,0,0,1,381.579.558q-8.463,0-11.532-6.417L368.838,0h-6.417l13.206-66.216h6.51l-5.115,25.575q4.557-5.766,12.555-5.766,6.324,0,9.718,3.72T402.69-31.9Zm-6.6.837q0-9.579-8.184-9.579-6.417,0-9.625,4.7t-4.79,12.974a44.011,44.011,0,0,0-1.023,8.184q0,9.579,8.277,9.579,6.417,0,9.579-4.743t4.743-13.02A43.793,43.793,0,0,0,396.087-31.062Zm53.2-14.787-30.5,56.823a20.577,20.577,0,0,1-3.906,5.487q-3.348,3.069-9.486,3.069H402.5l1.209-5.766h1.953a7.744,7.744,0,0,0,4.789-1.255,14.947,14.947,0,0,0,3.488-4.79L418.5-1.023l-6.6-44.826h6.51L423.15-8.928l18.972-36.921Z" transform="translate(0.651 91)" fill="#1e4d7d"/>
</svg>
