<svg id="Component_1_1" data-name="Component 1 – 1" xmlns="http://www.w3.org/2000/svg" width="494.2" height="200" viewBox="0 0 494.2 200">
  <g id="Rectangle_1" data-name="Rectangle 1" fill="none" stroke="#3b6da9" stroke-width="15">
    <rect width="125" height="112" rx="25" stroke="none"/>
    <rect x="7.5" y="7.5" width="110" height="97" rx="17.5" fill="none"/>
  </g>
  <g id="Ellipse_1" data-name="Ellipse 1" transform="translate(85 71)" fill="#fff" stroke="#eecc47" stroke-width="13">
    <circle cx="28" cy="28" r="28" stroke="none"/>
    <circle cx="28" cy="28" r="21.5" fill="none"/>
  </g>
  <g id="Rectangle_2" data-name="Rectangle 2" transform="translate(150 88)" fill="none" stroke="#3b6da9" stroke-width="15">
    <rect width="125" height="112" rx="25" stroke="none"/>
    <rect x="7.5" y="7.5" width="110" height="97" rx="17.5" fill="none"/>
  </g>
  <g id="Ellipse_2" data-name="Ellipse 2" transform="translate(142 80)" fill="#fff" stroke="#3b6da9" stroke-width="13">
    <circle cx="28" cy="28" r="28" stroke="none"/>
    <circle cx="28" cy="28" r="21.5" fill="none"/>
  </g>
  <g id="Component_2_1" data-name="Component 2 – 1" transform="translate(146 14.328)">
    <path id="Path_1" data-name="Path 1" d="M57.591.081H46.008L36.693-28.35,27.378.081h-11.5L0-57.672H14.823l7.533,30.294,9.315-30.294H41.715L51.03-27.378l7.533-30.294H73.386ZM109.674-5.1a17.907,17.907,0,0,1-5.711,4.01,19.806,19.806,0,0,1-8.3,1.58,19.909,19.909,0,0,1-8.3-1.539,18.308,18.308,0,0,1-5.873-4.253,15.6,15.6,0,0,1-3.564-6.359,38.136,38.136,0,0,1-1.053-10.125,40.077,40.077,0,0,1,.972-10.085,14.991,14.991,0,0,1,3.523-6.277,18.744,18.744,0,0,1,5.994-4.333,19.806,19.806,0,0,1,8.3-1.58,19.909,19.909,0,0,1,8.3,1.539,18.307,18.307,0,0,1,5.872,4.252,15.556,15.556,0,0,1,3.564,6.44,38.3,38.3,0,0,1,1.053,10.044,40.077,40.077,0,0,1-.972,10.085A16.021,16.021,0,0,1,109.674-5.1ZM99.225-30.861a4.831,4.831,0,0,0-3.564-1.215A4.831,4.831,0,0,0,92.1-30.861a5.964,5.964,0,0,0-1.579,3.28,35.318,35.318,0,0,0-.365,5.792,35.446,35.446,0,0,0,.365,5.751A6,6,0,0,0,92.1-12.717,4.831,4.831,0,0,0,95.661-11.5a4.831,4.831,0,0,0,3.564-1.215A5.964,5.964,0,0,0,100.8-16a35.319,35.319,0,0,0,.365-5.792,35.447,35.447,0,0,0-.365-5.751A6,6,0,0,0,99.225-30.861ZM146.934.081V-26.067q0-3.33-1.7-4.67a5.785,5.785,0,0,0-3.645-1.34,5.785,5.785,0,0,0-3.645,1.34q-1.7,1.34-1.7,4.67V.081H122.958V-43.578h12.96v3.564a13.446,13.446,0,0,1,4.617-2.957,14.829,14.829,0,0,1,5.508-1.093,15.272,15.272,0,0,1,5.508.933,13.468,13.468,0,0,1,4.658,3.165,12.245,12.245,0,0,1,3.118,5.193,24.187,24.187,0,0,1,.891,6.939V.081Zm46.089,0V-3.564a14.065,14.065,0,0,1-4.374,3.038,14.288,14.288,0,0,1-5.67,1.012q-6.642,0-9.841-3.222a14.118,14.118,0,0,1-4.01-7.129,46.915,46.915,0,0,1-.81-9.385v-2.417a81.466,81.466,0,0,1,.607-11.237,13.218,13.218,0,0,1,4.01-7.532q3.4-3.384,9.963-3.384,6.075,0,9.72,3.4V-57.672H205.9V.081ZM187.11-32.076q-3.483,0-4.5,2.43T181.6-21.789q0,5.427,1.012,7.857t4.5,2.43q3.483,0,4.5-2.43t1.013-7.857q0-5.427-1.013-7.857T187.11-32.076ZM227.043-17.5a6.434,6.434,0,0,0,2.066,4.819,7.786,7.786,0,0,0,5.629,1.985,12.982,12.982,0,0,0,5.184-.81,13.561,13.561,0,0,0,3.807-2.835L251.667-6.4a24.439,24.439,0,0,1-7.33,5.225,23.921,23.921,0,0,1-9.6,1.66q-8.991,0-14.863-4.739T214-21.789q0-10.449,5.387-16.362t14.134-5.913q9.153,0,14.378,5.873t5.225,14.783V-17.5Zm12.231-12.231a5.782,5.782,0,0,0-2.066-2.511,6.584,6.584,0,0,0-3.686-.891,6.6,6.6,0,0,0-3.686.931,5.721,5.721,0,0,0-2.106,2.43,8.163,8.163,0,0,0-.688,3.442H240a10.064,10.064,0,0,0-.122-1.823A6.735,6.735,0,0,0,239.274-29.727Zm45.36-.081a9.645,9.645,0,0,0-2.187-1.7,5.411,5.411,0,0,0-2.592-.567,4.756,4.756,0,0,0-3.969,1.746,6.671,6.671,0,0,0-1.377,4.263V.081H261.225V-43.578h12.96v3.564a14.051,14.051,0,0,1,4.415-2.875,14.623,14.623,0,0,1,5.872-1.175,15.76,15.76,0,0,1,5.589.891,13.332,13.332,0,0,1,4.617,3.159Z" transform="translate(0 57.672)" fill="#1e4d7d"/>
    <path id="Path_2" data-name="Path 2" d="M5.76.08V-56.96H44.48v12.48H19.76v9.52H40.88v12.48H19.76V-12.4H44.48V.08Zm68.72,0h-10L48.64-43.04H62.4l7.12,22.32,7.04-22.32H90.32Zm31.76-17.36a6.355,6.355,0,0,0,2.04,4.76,7.69,7.69,0,0,0,5.56,1.96,12.822,12.822,0,0,0,5.12-.8,13.394,13.394,0,0,0,3.76-2.8l7.84,7.84a24.137,24.137,0,0,1-7.24,5.16A23.626,23.626,0,0,1,113.84.48q-8.88,0-14.68-4.68t-5.8-17.32q0-10.32,5.32-16.16t13.96-5.84q9.04,0,14.2,5.8T132-23.12v5.84Zm12.08-12.08a5.711,5.711,0,0,0-2.04-2.48,6.5,6.5,0,0,0-3.64-.88,6.52,6.52,0,0,0-3.64.92,5.65,5.65,0,0,0-2.08,2.4,8.062,8.062,0,0,0-.68,3.4h12.8a9.94,9.94,0,0,0-.12-1.8A6.651,6.651,0,0,0,118.32-29.36ZM163.68.08V-25.745q0-3.289-1.68-4.612a5.713,5.713,0,0,0-3.6-1.323,5.713,5.713,0,0,0-3.6,1.323q-1.68,1.323-1.68,4.612V.08H140V-43.04h12.8v3.52a13.28,13.28,0,0,1,4.56-2.92,14.646,14.646,0,0,1,5.44-1.08,15.084,15.084,0,0,1,5.44.922,13.3,13.3,0,0,1,4.6,3.126,12.094,12.094,0,0,1,3.08,5.129,23.889,23.889,0,0,1,.88,6.853V.08Zm36.96,0q-6.64,0-10-3.81a13.089,13.089,0,0,1-3.36-8.943V-31.28h-3.92V-41.36h3.92V-53.68H200.4v12.32h6.8v10.08h-6.8v17.67a2.338,2.338,0,0,0,2.64,2.65h4.16V.08Z" transform="translate(141 124.672)" fill="#1e4d7d"/>
  </g>
</svg>
