<svg version="1.0" xmlns="http://www.w3.org/2000/svg"
 width="215.000000pt" height="215.000000pt" viewBox="0 0 215.000000 215.000000"
 preserveAspectRatio="xMidYMid meet" fill="#000080">
<g transform="translate(0.000000,215.000000) scale(0.100000,-0.100000)"
fill="#000080" stroke="none">
<path d="M110 1275 l0 -715 110 0 110 0 0 45 0 45 -65 0 -65 0 0 625 0 625
870 0 870 0 0 -625 0 -625 -60 0 -60 0 0 -45 0 -45 105 0 105 0 0 715 0 715
-960 0 -960 0 0 -715z"/>
<path d="M1330 1468 c-68 -35 -90 -75 -90 -165 0 -127 44 -183 151 -191 103
-8 171 49 184 153 17 126 -60 225 -175 225 -14 0 -46 -10 -70 -22z m105 -78
c33 -12 59 -72 51 -114 -14 -70 -85 -99 -133 -54 -18 17 -23 32 -23 70 0 57
13 86 43 98 29 12 31 12 62 0z"/>
<path d="M1275 1051 c-51 -23 -101 -79 -114 -128 -6 -21 -11 -73 -11 -115 l0
-78 45 0 45 0 0 70 c0 133 43 180 165 180 81 0 111 -12 142 -59 19 -28 23 -47
23 -112 l0 -79 45 0 45 0 0 85 c0 127 -36 195 -125 236 -56 26 -204 26 -260 0z"/>
<path d="M576 689 c-92 -23 -143 -71 -169 -161 -11 -36 -18 -43 -44 -49 -53
-10 -117 -55 -140 -96 -12 -21 -25 -62 -29 -91 l-7 -52 -38 0 -39 0 0 -45 0
-45 965 0 965 0 0 45 0 45 -45 0 -45 0 0 43 c-1 87 -60 165 -143 188 -23 6
-47 13 -53 14 -6 2 -14 21 -17 42 -14 85 -81 145 -181 164 -95 17 -202 -5
-253 -53 l-23 -21 -23 21 c-40 38 -97 55 -182 56 -85 1 -128 -11 -181 -50 -27
-20 -34 -21 -43 -10 -37 44 -194 76 -275 55z m132 -90 c54 -11 100 -50 104
-88 3 -20 -3 -25 -44 -35 -26 -7 -62 -24 -80 -38 l-34 -26 -27 24 c-15 13 -46
28 -70 35 -23 6 -47 13 -54 15 -15 4 -6 43 16 67 20 23 47 38 86 48 43 10 49
10 103 -2z m463 -15 c34 -17 62 -56 57 -79 -2 -10 -25 -24 -57 -35 -29 -9 -62
-27 -73 -38 l-21 -20 -40 29 c-22 16 -58 32 -80 36 -46 7 -54 21 -33 61 14 27
53 53 101 65 31 9 115 -2 146 -19z m413 2 c36 -15 72 -67 62 -92 -3 -8 -16
-14 -29 -14 -13 0 -48 -15 -79 -33 l-55 -34 -27 24 c-15 13 -48 29 -73 36 -51
13 -61 27 -45 62 30 66 150 91 246 51z m-1035 -210 c36 -19 61 -62 61 -106 l0
-30 -165 0 c-180 0 -173 -3 -155 61 19 68 82 102 176 95 29 -3 66 -12 83 -20z
m376 13 c56 -14 95 -55 102 -108 l6 -41 -167 0 -166 0 0 24 c0 102 98 157 225
125z m419 0 c59 -16 96 -58 96 -108 l0 -41 -160 0 -160 0 0 39 c0 89 109 142
224 110z m455 -13 c36 -19 61 -62 61 -106 l0 -30 -165 0 c-159 0 -165 1 -165
20 0 29 24 82 46 102 45 39 160 46 223 14z"/>
</g>
</svg>
